<svg xmlns="http://www.w3.org/2000/svg" width="16" height="16" viewBox="0 0 16 16">
  <circle cx="8" cy="8" r="8" fill="#FF4444"/>
  <path fill="#FFFFFF" d="m5.575 7.59l-0.71-0.705l0.71-0.71l0.705 0.71l0.705-0.71l-0.705-0.705l0.705-0.705l0.71 0.71l0.705-0.71l-1.415-1.415l-3.535 3.535l1.415 1.415zM1.54 9.5l1.56-1.555l-1.06-1.06l4.945-4.95L8.05 3l0.7-0.71l-0.7-0.71l0.7-0.705L10.875 3l-0.705 0.7L9.46 3.5l1.065 1.065l-4.95 4.95l-1.06-1.06l-2.265 2.27z" transform="translate(1, 1) scale(0.4)"/>
</svg>