<svg xmlns="http://www.w3.org/2000/svg" width="32" height="32" viewBox="0 0 24 24">
  <!-- Icon from Material Design Icons by Pictogrammers - https://github.com/Templarian/MaterialDesign/blob/master/LICENSE -->
  <defs>
    <linearGradient id="icon-gradient" x1="0%" y1="0%" x2="100%" y2="100%">
      <stop offset="0%" style="stop-color:#8B5CF6;stop-opacity:1" />
      <stop offset="50%" style="stop-color:#6366F1;stop-opacity:1" />
      <stop offset="100%" style="stop-color:#06B6D4;stop-opacity:1" />
    </linearGradient>
  </defs>
  <path fill="url(#icon-gradient)" d="m11.15 15.18l-1.42-1.41l1.42-1.42l1.41 1.42l1.41-1.42l-1.41-1.41l1.41-1.41l1.42 1.41l1.41-1.41l-2.83-2.83l-7.07 7.07l2.83 2.83zM3.08 19l3.12-3.11l-2.12-2.12l9.89-9.9L16.1 6l1.4-1.42l-1.4-1.42l1.4-1.41L21.75 6l-1.41 1.4L18.92 6L17.5 7.4l2.13 2.13l-9.9 9.89l-2.12-2.12l-4.53 4.54z"/>
</svg>